<svg xmlns="http://www.w3.org/2000/svg" width="32" height="32" fill="none" viewBox="0 0 32 32">
  <path fill="#863bff" d="M16 4c-.55 0-1 .45-1 1v16c0 .55.45 1 1 1s1-.45 1-1V5c0-.55-.45-1-1-1z"/>
  <path fill="#863bff" d="M4 9h8v14a1 1 0 0 1-1 1H5a1 1 0 0 1-1-1V9z" opacity=".15"/>
  <path fill="#863bff" d="M3 8h10a1 1 0 0 1 0 2H3a1 1 0 0 1 0-2z"/>
  <path fill="#863bff" fill-rule="evenodd" d="M4 9.5a.5.5 0 0 1 .5-.5h7a.5.5 0 0 1 0 1h-7a.5.5 0 0 1-.5-.5z" clip-rule="evenodd"/>
  <path fill="#863bff" d="M4 13a.5.5 0 0 1 .5-.5h7a.5.5 0 0 1 0 1h-7A.5.5 0 0 1 4 13zm0 2.5a.5.5 0 0 1 .5-.5h5a.5.5 0 0 1 0 1h-5a.5.5 0 0 1-.5-.5zm0 2.5a.5.5 0 0 1 .5-.5h6a.5.5 0 0 1 0 1h-6A.5.5 0 0 1 4 18z"/>
  <path fill="#863bff" d="M28 9h-8v14a1 1 0 0 0 1 1h6a1 1 0 0 0 1-1V9z" opacity=".15"/>
  <path fill="#863bff" d="M29 8H19a1 1 0 0 0 0 2h10a1 1 0 0 0 0-2z"/>
  <path fill="#863bff" fill-rule="evenodd" d="M20.5 9.5a.5.5 0 0 1 .5-.5h7a.5.5 0 0 1 0 1h-7a.5.5 0 0 1-.5-.5z" clip-rule="evenodd"/>
  <path fill="#863bff" d="M21 13a.5.5 0 0 1 .5-.5h5a.5.5 0 0 1 0 1h-5A.5.5 0 0 1 21 13zm0 2.5a.5.5 0 0 1 .5-.5h4a.5.5 0 0 1 0 1h-4a.5.5 0 0 1-.5-.5zm0 2.5a.5.5 0 0 1 .5-.5h5a.5.5 0 0 1 0 1h-5A.5.5 0 0 1 21 18z"/>
  <path fill="#863bff" d="M16 22.5c-1.93 0-3.5 1.57-3.5 3.5s1.57 3.5 3.5 3.5 3.5-1.57 3.5-3.5-1.57-3.5-3.5-3.5zm0 2c.83 0 1.5.67 1.5 1.5s-.67 1.5-1.5 1.5-1.5-.67-1.5-1.5.67-1.5 1.5-1.5z"/>
  <path fill="#863bff" d="M4.5 22C3.12 22 2 23.12 2 24.5S3.12 27 4.5 27 7 25.88 7 24.5 5.88 22 4.5 22zm0 1.5c.55 0 1 .45 1 1s-.45 1-1 1-1-.45-1-1 .45-1 1-1zM27.5 22c-1.38 0-2.5 1.12-2.5 2.5s1.12 2.5 2.5 2.5 2.5-1.12 2.5-2.5-1.12-2.5-2.5-2.5zm0 1.5c.55 0 1 .45 1 1s-.45 1-1 1-1-.45-1-1 .45-1 1-1z"/>
</svg>
